<svg width="107" height="18" fill="none" xmlns="http://www.w3.org/2000/svg"><path d="M1.066 15.472c-.135-.184-.202-.413-.202-.689 0-.398.195-.734.585-1.01.21-.137.429-.206.654-.206.316 0 .616.145.901.436.451.474.917.826 1.398 1.056.496.229 1.089.344 1.78.344 1.172-.046 1.758-.498 1.758-1.354 0-.444-.203-.78-.608-1.01-.391-.23-1.007-.459-1.848-.688-.872-.245-1.586-.49-2.141-.735a3.945 3.945 0 01-1.42-1.101c-.39-.505-.586-1.178-.586-2.02 0-.734.203-1.37.608-1.905a4.07 4.07 0 011.623-1.262 5.134 5.134 0 012.14-.459c.767 0 1.533.146 2.3.436.766.29 1.367.72 1.803 1.285.195.245.293.52.293.827 0 .351-.143.642-.429.872a1.12 1.12 0 01-.72.252c-.331 0-.602-.107-.812-.321a2.848 2.848 0 00-1.06-.803c-.42-.2-.9-.299-1.442-.299-1.142 0-1.712.42-1.712 1.262 0 .337.105.612.315.827.21.198.473.36.789.481.33.108.789.245 1.375.413.81.23 1.487.467 2.028.712.54.245.999.62 1.375 1.124.375.505.563 1.17.563 1.997 0 .75-.218 1.408-.654 1.974-.435.55-.999.971-1.69 1.262a5.255 5.255 0 01-2.096.436 7.51 7.51 0 01-2.772-.505 4.617 4.617 0 01-2.096-1.63zM23.022 4.87c.39 0 .714.13.97.39.255.26.382.596.382 1.01v9.706c0 .398-.127.735-.383 1.01-.255.26-.578.39-.969.39-.39 0-.713-.13-.969-.39-.24-.26-.368-.589-.383-.987-.376.444-.886.827-1.532 1.148-.632.306-1.3.459-2.006.459a5.138 5.138 0 01-2.817-.803c-.842-.551-1.51-1.309-2.006-2.272-.48-.964-.721-2.058-.721-3.282 0-1.224.24-2.318.721-3.282.48-.979 1.134-1.736 1.96-2.272a4.957 4.957 0 012.773-.826c.72 0 1.397.138 2.028.413a5.15 5.15 0 011.6 1.01V6.27c0-.398.128-.727.383-.987.256-.275.579-.413.97-.413zM18.47 15.08c.976 0 1.773-.36 2.389-1.078.616-.735.924-1.652.924-2.754s-.308-2.02-.924-2.754c-.616-.734-1.413-1.101-2.39-1.101-.96 0-1.75.367-2.366 1.101-.616.734-.924 1.652-.924 2.754 0 1.101.301 2.02.902 2.754.616.719 1.412 1.078 2.389 1.078zm12.216.896c0 .398-.136.735-.406 1.01-.255.26-.578.39-.969.39-.376 0-.691-.13-.947-.39a1.43 1.43 0 01-.383-1.01V1.794c0-.398.128-.727.383-.987.27-.275.601-.413.992-.413.376 0 .691.138.947.413.255.26.383.59.383.987v14.182zm14.193-5.026a1.186 1.186 0 01-.429.896c-.27.23-.586.344-.946.344h-7.437c.18.902.593 1.614 1.24 2.134a3.458 3.458 0 002.185.757c.616 0 1.097-.053 1.443-.16.345-.123.616-.245.81-.367.211-.138.354-.23.43-.276.27-.138.525-.206.765-.206.316 0 .586.114.812.344.225.23.338.497.338.803 0 .413-.21.788-.631 1.125-.421.351-.984.65-1.69.895a6.496 6.496 0 01-2.142.367c-1.262 0-2.366-.268-3.312-.803a5.6 5.6 0 01-2.164-2.204c-.51-.948-.766-2.011-.766-3.19 0-1.315.27-2.47.811-3.465.541-.994 1.255-1.751 2.141-2.272a5.4 5.4 0 012.84-.803 5.14 5.14 0 012.794.826 6.095 6.095 0 012.119 2.226 6.07 6.07 0 01.788 3.03zm-5.702-3.556c-1.743 0-2.772.833-3.088 2.501h5.905v-.16c-.06-.643-.368-1.194-.924-1.653a2.893 2.893 0 00-1.893-.688zm14.65-2.524c1.037 0 1.976.275 2.817.825.842.536 1.503 1.286 1.983 2.25.496.963.744 2.057.744 3.281 0 1.224-.24 2.325-.72 3.305-.482.963-1.143 1.72-1.984 2.272a4.951 4.951 0 01-2.75.803 4.94 4.94 0 01-2.05-.436c-.631-.306-1.157-.673-1.578-1.102v.138c0 .398-.128.734-.383 1.01-.255.26-.578.39-.97.39a1.3 1.3 0 01-.968-.39c-.256-.26-.383-.597-.383-1.01V1.794c0-.398.127-.727.383-.987.255-.275.578-.413.969-.413.39 0 .714.138.969.413.255.26.383.59.383.987V6.59c.36-.459.864-.856 1.51-1.193a4.183 4.183 0 012.028-.528zm-.337 10.21c.962 0 1.75-.367 2.367-1.101.615-.735.923-1.652.923-2.754s-.308-2.012-.924-2.73c-.6-.735-1.39-1.102-2.366-1.102-.976 0-1.773.367-2.389 1.101-.616.72-.924 1.63-.924 2.731 0 1.102.308 2.02.924 2.754.616.734 1.413 1.101 2.39 1.101zm20.17-3.831c0 1.224-.27 2.325-.81 3.305a5.784 5.784 0 01-2.232 2.249c-.931.535-1.96.803-3.087.803-1.142 0-2.179-.268-3.11-.803a5.83 5.83 0 01-2.21-2.25c-.54-.979-.81-2.08-.81-3.304 0-1.224.27-2.318.81-3.282.542-.979 1.278-1.736 2.21-2.272.931-.55 1.968-.826 3.11-.826 1.126 0 2.155.276 3.087.826a5.743 5.743 0 012.231 2.272c.541.964.811 2.058.811 3.282zm-2.704 0c0-.75-.158-1.415-.473-1.997-.3-.596-.714-1.055-1.24-1.376a3.15 3.15 0 00-1.712-.482c-.632 0-1.21.16-1.736.482-.51.32-.924.78-1.24 1.376-.3.582-.45 1.247-.45 1.997s.15 1.415.45 1.996c.316.582.73 1.033 1.24 1.355a3.265 3.265 0 001.736.481 3.15 3.15 0 001.712-.481 3.349 3.349 0 001.24-1.354c.315-.582.473-1.247.473-1.997zm11.229 3.534c.21 0 .398.107.564.321.18.2.27.467.27.804 0 .413-.225.764-.676 1.055a2.725 2.725 0 01-1.487.413c-.932 0-1.72-.199-2.367-.596-.63-.414-.946-1.278-.946-2.594V7.853h-1.037c-.36 0-.661-.123-.902-.368-.24-.244-.36-.55-.36-.918 0-.351.12-.642.36-.872.24-.244.541-.367.902-.367h1.037V3.86c0-.397.127-.726.383-.986.27-.276.6-.413.991-.413.376 0 .691.137.947.413.255.26.383.589.383.986v1.47h1.6c.36 0 .661.122.902.366.24.245.36.551.36.918 0 .352-.12.65-.36.895-.24.23-.541.345-.902.345h-1.6v6.219c0 .32.083.558.248.711.165.138.39.207.676.207.12 0 .285-.031.496-.092.18-.077.353-.115.518-.115z" fill="#039"/><ellipse rx="2.252" ry="2.294" transform="matrix(1 0 0 -1 91.776 15.312)" fill="#EBA236"/><ellipse rx="2.252" ry="2.294" transform="matrix(1 0 0 -1 98.418 15.312)" fill="#EBA236"/><ellipse rx="2.252" ry="2.294" transform="matrix(1 0 0 -1 104.713 15.312)" fill="#EBA236"/></svg>