<svg width="17" height="16" fill="none" xmlns="http://www.w3.org/2000/svg"><path fill-rule="evenodd" clip-rule="evenodd" d="M2.635 7.869C3.197 7.806 4.361 7.72 4.91 8c.95.483 1.984 1.655 1.984 1.655L4.612 12.3c1.004.87 2.298 1.413 3.73 1.413a5.718 5.718 0 005.721-5.714c0-.54-.098-1.054-.239-1.549-.466.543-1.41 1.24-1.41 1.24-.8-.09-.411.9-.411.9.337 2.19-.825 2.46-.825 2.46-1.585 1.626-2.836-1.908-2.836-1.908-.293-1.967-.462-2.597-.462-2.597-2.029-1.266-.03-1.728.4-1.8.005-.002.007 0 .013 0 .103-.016.078-.017-.012 0-.575.078-.465-.27-.813-.901-.351-.637-.78.107-.825 0-.043-.107-.246 1.165-.824 1.35-.577.186-.412-1.35-.412-1.35-1.115 1.706-1.48 1.27-1.597.71a5.676 5.676 0 00-1.175 3.314M8.342 16C3.92 16 .332 12.418.332 8s3.587-8 8.01-8c4.424 0 8.01 3.582 8.01 8s-3.586 8-8.01 8" fill="#7F8FA4"/></svg>