<svg width="17" height="16" fill="none" xmlns="http://www.w3.org/2000/svg"><path fill-rule="evenodd" clip-rule="evenodd" d="M8.511 0a8 8 0 100 16 8 8 0 000-16zm1.74 2.732l.134-.488a.79.79 0 011.09-.511 6.973 6.973 0 013.314 3.313.789.789 0 01-.537 1.093l-.5.119a.74.74 0 01-.842-.382 4.933 4.933 0 00-2.282-2.277.741.741 0 01-.382-.867h.004zm-8.015 2.3A6.971 6.971 0 015.55 1.718a.788.788 0 011.093.537l.12.5a.741.741 0 01-.382.842 4.924 4.924 0 00-2.277 2.281.742.742 0 01-.868.382l-.488-.134a.789.789 0 01-.51-1.09v-.004zm4.527 8.24l-.134.488a.789.789 0 01-1.09.511 6.977 6.977 0 01-3.314-3.313.788.788 0 01.537-1.093l.5-.12a.741.741 0 01.842.382 4.92 4.92 0 002.282 2.277c.32.16.48.525.381.868h-.004zM4.69 8.008a3.833 3.833 0 117.666 0 3.833 3.833 0 01-7.666 0zm10.087 2.958a6.971 6.971 0 01-3.312 3.314.787.787 0 01-1.093-.537l-.119-.5a.74.74 0 01.382-.842 4.93 4.93 0 002.277-2.282.74.74 0 01.868-.381l.487.134a.788.788 0 01.511 1.089v.005z" fill="#1A53C6"/></svg>