<svg width="17" height="16" fill="none" xmlns="http://www.w3.org/2000/svg"><path fill-rule="evenodd" clip-rule="evenodd" d="M14.518 12c0-1.08-1.152-2.018-2.865-2.546A3.986 3.986 0 018.51 11a3.986 3.986 0 01-3.14-1.546C3.657 9.982 2.504 10.92 2.504 12v2H14.52v-2zm-4.004-8A2 2 0 008.51 2a2 2 0 00-2 2v3a2 2 0 002 2 2 2 0 002.003-2V4zm5.005 12H1.503a1 1 0 01-1.001-1v-3c0-1.864 1.65-3.472 4.073-4.331A3.875 3.875 0 014.506 7V4c0-2.209 1.794-4 4.005-4a4.003 4.003 0 014.005 4v3c0 .229-.03.451-.068.669 2.423.859 4.072 2.467 4.072 4.331v3a1 1 0 01-1 1z" fill="#7F8FA4"/></svg>